<svg width="91" height="22" viewBox="0 0 91 22" fill="none" xmlns="http://www.w3.org/2000/svg">
<path d="M19.5399 6.93365L17.1367 21.9767H22.0276L23.716 20.4988L25.1512 11.7575H30.8918L31.7698 6.93365H26.7721C26.1192 6.93365 24.9373 7.80173 24.8979 8.53795H24.5715C24.5715 8.53795 24.4533 7.77976 24.2225 6.94464L19.5399 6.93365Z" fill="#728EA6"/>
<path d="M47.8546 6.93365L47.365 10.1313L45.8848 11.1587H39.8346L38.8159 18.0044H45.9917L45.6428 20.6141L43.9994 21.9767H34.7693C34.0082 21.8726 33.3184 21.4836 32.8457 20.892C32.3731 20.3004 32.1547 19.5525 32.2366 18.8066L33.6662 9.76315C33.8204 8.98724 34.2371 8.28438 34.8494 7.76731C35.4618 7.25023 36.2343 6.94891 37.043 6.91168C37.3976 6.90618 47.8546 6.93365 47.8546 6.93365Z" fill="#728EA6"/>
<path d="M65.0428 6.92264L64.5475 9.66973L62.9322 11.0817H56.0153L55.9702 12.0542L61.7165 13.0871C62.3105 13.2131 62.8322 13.557 63.1736 14.0479C63.5151 14.5387 63.6503 15.1389 63.5513 15.7243L63.0391 19.2406C62.8365 20.3779 61.0918 21.9877 59.5779 21.9877H47.8545L48.2653 19.4878L50.1226 17.9824H57.0227V16.7352L51.7154 15.7353C50.9274 15.543 49.2671 14.8507 49.4022 13.2959L49.965 9.66973C50.1622 8.88349 50.6248 8.18494 51.2782 7.6866C51.9316 7.18827 52.7378 6.91916 53.567 6.92264H65.0428Z" fill="#728EA6"/>
<path d="M67.4518 6.92267L65.043 21.9987H69.9845L71.5322 20.5702L73.7497 6.95563L67.4518 6.92267Z" fill="#728EA6"/>
<path d="M67.8516 4.55467L68.5551 0H74.9092L74.4646 2.99982L72.658 4.55467H67.8516Z" fill="#009C60"/>
<path d="M91 6.92267L90.5104 9.66975L88.8895 11.0818L81.86 11.0158L81.7812 12.0268L87.6063 13.0487C88.4111 13.2465 89.7168 14.2904 89.4748 15.7243L88.9795 19.1857C88.8557 19.9164 87.1842 21.9987 85.5013 21.9987H73.8174L74.2282 19.4988L76.0799 17.9934H82.873L83.0756 16.7462L77.7458 15.8232C76.3388 15.4936 75.1344 14.7244 75.3651 13.0047L75.9279 9.66975C76.1305 8.89358 76.5891 8.20405 77.2329 7.70757C77.8768 7.2111 78.6701 6.93527 79.4905 6.92267H91Z" fill="#728EA6"/>
<path d="M4.9067 6.92267C4.9067 6.92267 2.09264 7.04354 1.58048 9.48845C1.50169 9.84557 0.032752 18.8725 0.032752 18.8725C-0.07346 19.5421 0.0807366 20.2263 0.465033 20.7905C0.849329 21.3548 1.43593 21.7583 2.10953 21.9218C2.10953 21.9218 4.73223 22.0371 7.2086 21.9877C7.66713 21.9351 8.10763 21.7823 8.49738 21.5408C8.88712 21.2992 9.21609 20.9749 9.45985 20.5922H9.68497L10.1015 21.9767H14.6771L17.1366 6.92267H4.9067ZM9.06025 17.9605H6.24619L7.37182 11.2026H10.1859L9.06025 17.9605Z" fill="#728EA6"/>
</svg>
